#!OML:ASF H:\Pregnant\Project 1\Capture day 1\Session 1\femalepreg.ASF
:FULLY-SPECIFIED
:DEGREES
569
root 2.84618 2.48466 16.007 -79.4524 -6.32827 95.3967
lowerback -2.16009 7.41832 11.8095
upperback -7.56873 9.7119 -11.2515
thorax -3.01902 4.05796 -19.2912
lowerneck -11.3793 11.5094 37.0769
upperneck 33.6579 10.5162 -10.4304
head 17.3931 8.02921 -8.60232
rclavicle -6.99722e-014 -1.27222e-014
rhumerus 7.96386 16.7073 -89.5092
rradius 89.251
rwrist -27.4717
rhand -37.787 -34.2279
rfingers 7.12502
rthumb -10.8339 -63.9285
lclavicle -6.99722e-014 -1.27222e-014
lhumerus -63.8443 -23.3416 61.2309
lradius 93.5508
lwrist 36.9068
lhand -7.06474 -3.61795
lfingers 7.12502
lthumb 18.8086 25.4927
rfemur -58.48 14.9419 37.2382
rtibia 128.061
rfoot -34.3291 -14.919
rtoes 54.1112
lfemur -60.4619 0.634858 -31.637
ltibia 116.932
lfoot 21.0762 -2.89224
ltoes -2.05596
570
root 2.86197 2.48118 16.0097 -79.4396 -6.36777 95.0962
lowerback -2.15832 7.37853 11.8605
upperback -7.52536 9.66115 -11.2374
thorax -2.98833 4.03758 -19.3092
lowerneck -11.2879 11.5269 37.0379
upperneck 33.6725 10.6385 -10.509
head 17.4193 8.07504 -8.61288
rclavicle 6.83819e-014 -9.85972e-014
rhumerus 6.96694 17.0917 -89.2241
rradius 87.9329
rwrist -26.8648
rhand -36.652 -33.74
rfingers 7.12502
rthumb -9.73892 -63.4948
lclavicle 6.83819e-014 -9.85972e-014
lhumerus -63.8904 -22.8758 61.0198
lradius 93.6977
lwrist 36.6749
lhand -6.97244 -3.84182
lfingers 7.12502
lthumb 18.8973 25.2602
rfemur -58.5687 14.5682 37.1279
rtibia 127.877
rfoot -34.2219 -14.7642
rtoes 54.1484
lfemur -60.4635 0.688311 -31.6835
ltibia 117.45
lfoot 22.1534 -3.41419
ltoes 1.91922
571
root 2.8791 2.47775 16.0107 -79.4317 -6.41498 94.8053
lowerback -2.14269 7.3424 11.9176
upperback -7.48591 9.61685 -11.2203
thorax -2.96694 4.01913 -19.3289
lowerneck -11.2054 11.5455 37.0063
upperneck 33.6959 10.7524 -10.5786
head 17.4504 8.11976 -8.62205
rclavicle -5.56597e-014 1.43125e-013
rhumerus 6.00674 17.4051 -88.9683
rradius 86.6398
rwrist -26.277
rhand -35.4287 -32.9215
rfingers 7.12502
rthumb -8.55854 -62.7281
lclavicle -5.56597e-014 1.43125e-013
lhumerus -63.9457 -22.4305 60.8294
lradius 93.8404
lwrist 36.4235
lhand -6.88689 -4.07643
lfingers 7.12502
lthumb 18.9796 25.0176
rfemur -58.6996 14.234 37.1662
rtibia 127.884
rfoot -34.2226 -14.6751
rtoes 54.1624
lfemur -60.4503 0.787809 -31.7438
ltibia 117.98
lfoot 23.2126 -3.89233
ltoes 5.38695
572
root 2.89743 2.47378 16.012 -79.4217 -6.46676 94.5251
lowerback -2.12425 7.31007 11.9779
upperback -7.4471 9.57825 -11.2017
thorax -2.94535 4.00359 -19.3486
lowerneck -11.1502 11.5731 36.9681
upperneck 33.7415 10.8594 -10.6229
head 17.4961 8.16475 -8.61917
rclavicle 4.13472e-014 -3.18055e-015
rhumerus 5.07331 17.6373 -88.7383
rradius 85.401
rwrist -25.7108
rhand -34.1905 -32.3045
rfingers 7.12502
rthumb -7.36344 -62.1564
lclavicle 4.13472e-014 -3.18055e-015
lhumerus -63.9997 -22.004 60.6565
lradius 93.9716
lwrist 36.1714
lhand -6.80652 -4.30812
lfingers 7.12502
lthumb 19.0569 24.7783
rfemur -58.8446 13.9478 37.2457
rtibia 127.952
rfoot -34.272 -14.6042
rtoes 54.1786
lfemur -60.4362 0.929675 -31.8241
ltibia 118.538
lfoot 24.1907 -4.28892
ltoes 8.10302
573
root 2.91699 2.46942 16.014 -79.4123 -6.52801 94.2533
lowerback -2.09538 7.28178 12.048
upperback -7.41162 9.54655 -11.1781
thorax -2.93012 3.99047 -19.3692
lowerneck -11.103 11.6021 36.9194
upperneck 33.7837 10.9575 -10.6417
head 17.5361 8.20636 -8.60291
rclavicle -1.27222e-013 -6.36111e-015
rhumerus 4.16419 17.7774 -88.5448
rradius 84.2163
rwrist -25.125
rhand -32.9249 -31.9016
rfingers 7.12502
rthumb -6.14173 -61.7925
lclavicle -1.27222e-013 -6.36111e-015
lhumerus -64.0604 -21.6021 60.5108
lradius 94.0913
lwrist 35.928
lhand -6.72993 -4.51889
lfingers 7.12502
lthumb 19.1305 24.5602
rfemur -58.9902 13.7034 37.3331
rtibia 128.022
rfoot -34.3381 -14.5389
rtoes 54.205
lfemur -60.4179 1.11125 -31.9212
ltibia 119.127
lfoot 24.986 -4.6341
ltoes 9.81419
574
root 2.93769 2.4647 16.0163 -79.4045 -6.59467 93.9898
lowerback -2.05626 7.25719 12.1253
upperback -7.37785 9.52126 -11.1536
thorax -2.91918 3.97994 -19.3941
lowerneck -11.0832 11.633 36.855
upperneck 33.8343 11.0371 -10.6282
head 17.5773 8.24105 -8.57159
rclavicle -3.18055e-015 -3.18055e-014
rhumerus 3.28421 17.8273 -88.3859
rradius 83.092
rwrist -24.5044
rhand -31.5805 -31.9071
rfingers 7.12502
rthumb -4.84368 -61.8317
lclavicle -3.18055e-015 -3.18055e-014
lhumerus -64.1192 -21.2264 60.3836
lradius 94.195
lwrist 35.698
lhand -6.64714 -4.69948
lfingers 7.12502
lthumb 19.2102 24.3718
rfemur -59.1477 13.4903 37.4296
rtibia 128.095
rfoot -34.4063 -14.4895
rtoes 54.2364
lfemur -60.3876 1.33203 -32.0396
ltibia 119.746
lfoot 25.5275 -4.95518
ltoes 10.2643
575
root 2.9591 2.45939 16.0205 -79.391 -6.66548 93.7302
lowerback -2.01762 7.23605 12.2107
upperback -7.3466 9.50093 -11.1301
thorax -2.90751 3.97154 -19.425
lowerneck -11.0624 11.6567 36.8147
upperneck 33.8612 11.1054 -10.6327
head 17.6053 8.26951 -8.5542
rclavicle -6.36111e-015 -1.59028e-014
rhumerus 2.43776 17.8039 -88.2495
rradius 82.0272
rwrist -23.8268
rhand -30.2514 -32.1628
rfingers 7.12502
rthumb -3.5602 -62.1128
lclavicle -6.36111e-015 -1.59028e-014
lhumerus -64.1734 -20.8803 60.2715
lradius 94.2799
lwrist 35.488
lhand -6.54795 -4.84532
lfingers 7.12502
lthumb 19.3055 24.2164
rfemur -59.286 13.3025 37.4334
rtibia 128.036
rfoot -34.4145 -14.4046
rtoes 54.2948
lfemur -60.3571 1.5828 -32.185
ltibia 120.405
lfoot 25.7642 -5.32775
ltoes 9.4172
576
root 2.98123 2.45386 16.0245 -79.3797 -6.72838 93.4744
lowerback -1.97228 7.21672 12.2916
upperback -7.31523 9.48376 -11.1055
thorax -2.899 3.96472 -19.4523
lowerneck -11.0318 11.6688 36.7875
upperneck 33.8642 11.1649 -10.6593
head 17.6174 8.29145 -8.55116
rclavicle 1.27222e-014 4.13472e-014
rhumerus 1.61293 17.7412 -88.1149
rradius 81.0328
rwrist -23.114
rhand -29.092 -32.5211
rfingers 7.12502
rthumb -2.44057 -62.4869
lclavicle 1.27222e-014 4.13472e-014
lhumerus -64.2298 -20.5585 60.1862
lradius 94.3476
lwrist 35.3032
lhand -6.43568 -4.96125
lfingers 7.12502
lthumb 19.4135 24.0896
rfemur -59.4246 13.1184 37.4089
rtibia 127.955
rfoot -34.4032 -14.3228
rtoes 54.3552
lfemur -60.3003 1.86094 -32.3719
ltibia 121.077
lfoot 25.665 -5.81414
ltoes 7.32745
577
root 3.00413 2.44807 16.0289 -79.3568 -6.78467 93.2162
lowerback -1.93526 7.19811 12.3689
upperback -7.28553 9.46657 -11.084
thorax -2.88764 3.95806 -19.48
lowerneck -11.0003 11.677 36.7901
upperneck 33.8443 11.2212 -10.7145
head 17.6209 8.31051 -8.56664
rclavicle 4.77083e-014 -3.81667e-014
rhumerus 0.825746 17.6621 -87.9814
rradius 80.104
rwrist -22.3977
rhand -28.256 -32.8035
rfingers 7.12502
rthumb -1.63312 -62.777
lclavicle 4.77083e-014 -3.81667e-014
lhumerus -64.2829 -20.2675 60.1167
lradius 94.397
lwrist 35.1537
lhand -6.30813 -5.04733
lfingers 7.12502
lthumb 19.5361 23.9912
rfemur -59.5975 12.94 37.3798
rtibia 127.885
rfoot -34.3704 -14.0572
rtoes 54.5941
lfemur -60.2423 2.16191 -32.6042
ltibia 121.763
lfoot 25.2544 -6.40651
ltoes 4.30503
578
root 3.02763 2.44199 16.0336 -79.3152 -6.83291 92.9526
lowerback -1.91282 7.17938 12.4427
upperback -7.25879 9.44738 -11.0719
thorax -2.87111 3.95051 -19.5159
lowerneck -10.9821 11.6905 36.8204
upperneck 33.8144 11.2694 -10.7658
head 17.6226 8.3283 -8.58449
rclavicle -6.36111e-015 3.18055e-014
rhumerus 0.183485 17.6223 -87.8102
rradius 79.0574
rwrist -21.735
rhand -27.8645 -32.9506
rfingers 7.12502
rthumb -1.25508 -62.9266
lclavicle -6.36111e-015 3.18055e-014
lhumerus -64.3251 -20.009 60.0496
lradius 94.4294
lwrist 35.0412
lhand -6.17823 -5.11238
lfingers 7.12502
lthumb 19.661 23.9134
rfemur -59.8173 12.7635 37.3607
rtibia 127.852
rfoot -34.3109 -13.4859
rtoes 55.119
lfemur -60.1961 2.48096 -32.8897
ltibia 122.455
lfoot 24.556 -7.08312
ltoes 0.968557
